<?xml version="1.0" standalone="no"?><svg xmlns="http://www.w3.org/2000/svg" viewBox="0 0 1440 320"><path fill="white" fill-opacity="50000000000" d="M0,32L24,26.7C48,21,96,11,144,16C192,21,240,43,288,53.3C336,64,384,64,432,106.7C480,149,528,235,576,234.7C624,235,672,149,720,138.7C768,128,816,192,864,192C912,192,960,128,1008,85.3C1056,43,1104,21,1152,37.3C1200,53,1248,107,1296,117.3C1344,128,1392,96,1416,80L1440,64L1440,0L1416,0C1392,0,1344,0,1296,0C1248,0,1200,0,1152,0C1104,0,1056,0,1008,0C960,0,912,0,864,0C816,0,768,0,720,0C672,0,624,0,576,0C528,0,480,0,432,0C384,0,336,0,288,0C240,0,192,0,144,0C96,0,48,0,24,0L0,0Z"></path></svg>